<svg id="Layer_1" data-name="Layer 1" xmlns="http://www.w3.org/2000/svg" xmlns:xlink="http://www.w3.org/1999/xlink" viewBox="0 0 306 96"><defs><style>.cls-1{fill:#414042;}.cls-2{fill:#ea8d23;}.cls-3{fill:#3a93d0;}.cls-4{fill:url(#Orange);}.cls-5{fill:url(#Orange-2);}</style><linearGradient id="Orange" x1="253.71" y1="49.88" x2="289.65" y2="49.88" gradientUnits="userSpaceOnUse"><stop offset="0" stop-color="#f69453"/><stop offset="0.5" stop-color="#f37521"/><stop offset="1" stop-color="#d4622a"/></linearGradient><linearGradient id="Orange-2" x1="90.56" y1="49.88" x2="245.23" y2="49.88" xlink:href="#Orange"/></defs><title>Artboard 1</title><rect class="cls-1" x="98.53" y="24.85" width="1.79" height="2.14"/><rect class="cls-1" x="95.23" y="24.85" width="1.79" height="2.14"/><rect class="cls-1" x="106.04" y="44.39" width="1.79" height="2.14"/><rect class="cls-1" x="109.35" y="44.39" width="1.79" height="2.14"/><rect class="cls-1" x="117.61" y="27.27" width="1.79" height="2.14"/><path class="cls-1" d="M132.79,42.52a18.17,18.17,0,0,0,2.9.15H148c2.47,0,3.71-1.49,3.71-4.44V26.36H150V37.46a5.44,5.44,0,0,1-.38,2.42,2.15,2.15,0,0,1-2.14,1.06h-1.18v0H143a6.25,6.25,0,0,0,.48-2.67v-7h-1.76v6.23a5.64,5.64,0,0,1-.38,2.44,2.18,2.18,0,0,1-2.14,1h-1v0h-4a5.52,5.52,0,0,1-2.57-.6A6,6,0,0,0,134.3,38a6,6,0,0,0,.91-3.18,5.15,5.15,0,0,0-1.36-3.63,5.94,5.94,0,0,0-8.14,0,5.06,5.06,0,0,0-1.39,3.63,6,6,0,0,0,.91,3.18,6.05,6.05,0,0,0,2.67,2.34,5.52,5.52,0,0,1-2.57.6H118.9a6.26,6.26,0,0,0,.48-2.67v-7h-1.76v6.23a5.64,5.64,0,0,1-.38,2.44,2.18,2.18,0,0,1-2.14,1h-1.18v0h-3.28a6.25,6.25,0,0,0,.48-2.67v-7h-1.76v6.23A5.64,5.64,0,0,1,109,39.9a2.18,2.18,0,0,1-2.14,1h-2.12c-2,0-3.23-1.49-3.23-4V28.83H96.14c-2.87,0-4.79,2.52-4.79,6.1,0,3.35,1.92,6,4.49,6A4.12,4.12,0,0,0,99.69,39a4.63,4.63,0,0,0,4.81,3.68h19.33a18.33,18.33,0,0,0,2.92-.15,9.7,9.7,0,0,0,3-1.21A9.58,9.58,0,0,0,132.79,42.52ZM99.67,34.61c-.05,3.3-1.13,4.94-3.25,4.94-2,0-3.3-2.14-3.3-4.71s1.36-4.69,3.35-4.69h3.2Zm27.45,2.55a4.54,4.54,0,0,1-.86-2.65,3.3,3.3,0,0,1,3.5-3.43,3.41,3.41,0,0,1,2.62,1,3.35,3.35,0,0,1,.91,2.42,4.57,4.57,0,0,1-.88,2.65,5.85,5.85,0,0,1-2.62,2.07A5.87,5.87,0,0,1,127.12,37.15Z"/><rect class="cls-1" x="127.32" y="25.28" width="1.79" height="2.14"/><rect class="cls-1" x="130.62" y="25.28" width="1.79" height="2.14"/><rect class="cls-1" x="138.36" y="27.27" width="1.79" height="2.14"/><rect class="cls-1" x="141.66" y="27.27" width="1.79" height="2.14"/><rect class="cls-1" x="155.12" y="26.36" width="1.76" height="16.31"/><path class="cls-1" d="M177.78,26.36H176V37.83a9.49,9.49,0,0,1-1.18,4.94,4.52,4.52,0,0,1-4.16,2.37,4.57,4.57,0,0,1-4.16-2.37,9.49,9.49,0,0,1-1.21-4.94V35.77h-1.76v2.42a9.38,9.38,0,0,0,2,6.25,6.45,6.45,0,0,0,5.09,2.42,6.29,6.29,0,0,0,5-2.4,9.39,9.39,0,0,0,2.09-6.28Z"/><path class="cls-1" d="M233,37.46a5.44,5.44,0,0,1-.38,2.42,2.15,2.15,0,0,1-2.14,1.06h-1.18v0H226a6.25,6.25,0,0,0,.48-2.67V26.36h-1.76V37.46a5.64,5.64,0,0,1-.38,2.44,2.18,2.18,0,0,1-2.14,1h-1.06v0h-2.77v-.78c0-5.24-3.3-8.57-8.32-8.57a7.52,7.52,0,0,0-6.25,2.67c.78.78,1.29,1.29,1.54,1.56a5.15,5.15,0,0,1,4.74-2.5c4,0,6.2,2.44,6.2,6.71,0,.28,0,.58,0,.91h-18a6.25,6.25,0,0,0,.48-2.67V26.36h-1.76V37.46a5.64,5.64,0,0,1-.38,2.44,2.18,2.18,0,0,1-2.14,1H190V36.25c0-3.33-1.74-5-4.54-5a4.66,4.66,0,0,0-3.63,1.66A6,6,0,0,0,180.42,37a6.15,6.15,0,0,0,1.36,4.08,4.32,4.32,0,0,0,3.48,1.61H188a3,3,0,0,1-3.08,2.45h-.23v1.69c2.9-.18,4.61-1.54,5.12-4.13H231c2.47,0,3.71-1.49,3.71-4.44V26.36H233Zm-44.76,3.45-2.92,0a2.64,2.64,0,0,1-2.34-1.44,5.06,5.06,0,0,1-.71-2.7,4.6,4.6,0,0,1,.81-2.62,2.75,2.75,0,0,1,2.34-1.34,2.67,2.67,0,0,1,2.82,2.75Z"/><rect class="cls-1" x="246.94" y="48.67" width="1.79" height="2.14"/><rect class="cls-1" x="250.24" y="48.67" width="1.79" height="2.14"/><path class="cls-1" d="M261.89,42.67h2.19c2.47,0,3.71-1.49,3.71-4.44v-7H266v6.23a5.44,5.44,0,0,1-.38,2.42,2.15,2.15,0,0,1-2.14,1.06h-1.13v0h-.53c-1.89,0-2.72-.81-3.66-3.23-.78-2-2.9-3.6-4.44-3.6a8,8,0,0,0-1.36.05h0v1.59c2.07,0,3.28,1.16,3.28,3.43,0,3-2.95,5.85-6.33,5.85-4,0-6.45-3-6.45-7.54V35.26h-1.79v2.52c0,5,3.53,9,8.17,9a7.87,7.87,0,0,0,8-7.56,4.6,4.6,0,0,0,4.59,3.47Z"/><rect class="cls-1" x="266" y="27.27" width="1.79" height="2.14"/><path class="cls-1" d="M280.21,35.44c-1.29-2.82-3.73-4.23-7.29-4.23v1.66h.68a5.5,5.5,0,0,1,4.66,2.62,10.33,10.33,0,0,1,1.24,5.42h-9.33v1.76h11.19A17.71,17.71,0,0,0,280.21,35.44Z"/><path class="cls-1" d="M286.79,40.86c0,3-1.18,4.26-3.53,4.26v1.69c3.71-.2,5.29-2.17,5.29-6.28v-9.3h-1.76Z"/><rect class="cls-1" x="286.79" y="27.27" width="1.79" height="2.14"/><polygon class="cls-1" points="100.95 57.31 100.95 55.64 91.16 55.64 91.16 57.38 98.93 57.38 90.66 71.69 90.66 73.35 101.12 73.35 101.12 71.64 92.66 71.64 100.95 57.31"/><rect class="cls-1" x="104.16" y="55.64" width="1.74" height="17.71"/><path class="cls-1" d="M121.17,57.38a6.77,6.77,0,0,0-2.5-1.33,12.65,12.65,0,0,0-3.5-.41h-5V73.35h4.26a17.24,17.24,0,0,0,4-.34,7.42,7.42,0,0,0,2.42-1.13,8.15,8.15,0,0,0,2.62-3.14,9.77,9.77,0,0,0,.92-4.28,9.45,9.45,0,0,0-.84-4A8.75,8.75,0,0,0,121.17,57.38Zm-.5,12.41a6.88,6.88,0,0,1-5.21,1.9h-3.61V57.33h3.2a11.46,11.46,0,0,1,3.11.32,5.19,5.19,0,0,1,1.93,1.08,6.59,6.59,0,0,1,1.78,2.47,8.18,8.18,0,0,1,.62,3.21A7.44,7.44,0,0,1,120.68,69.79Z"/><polygon class="cls-1" points="139.47 71.24 129.75 55.64 127.66 55.64 127.66 73.35 129.37 73.35 129.18 57.73 138.89 73.35 140.99 73.35 140.99 55.64 139.26 55.64 139.47 71.24"/><polygon class="cls-1" points="149.55 64.84 145.02 55.64 143.03 55.64 148.68 66.82 148.68 73.35 150.4 73.35 150.4 66.85 156.05 55.64 154.12 55.64 149.55 64.84"/><path class="cls-1" d="M172,63.54q-.47-.18-1.39-.47a8.27,8.27,0,0,1-2.14-.92,2.63,2.63,0,0,1-.8-.92,2.67,2.67,0,0,1-.25-1.2,3,3,0,0,1,.83-2.18,2.86,2.86,0,0,1,2.15-.86,2.54,2.54,0,0,1,2,.78A3.68,3.68,0,0,1,173.2,60h1.64a5.31,5.31,0,0,0-1.3-3.45,4.16,4.16,0,0,0-3.16-1.23A4.56,4.56,0,0,0,167,56.66a4.75,4.75,0,0,0-1.32,3.47,4,4,0,0,0,.86,2.68,6.19,6.19,0,0,0,2.8,1.7l.44.15q3.72,1.23,3.72,3.64a3.68,3.68,0,0,1-.91,2.62,3.2,3.2,0,0,1-2.45,1,3,3,0,0,1-2.32-1,3.93,3.93,0,0,1-.93-2.62h-1.68a5.76,5.76,0,0,0,1.39,3.92,4.52,4.52,0,0,0,3.52,1.49,4.75,4.75,0,0,0,3.73-1.57A6,6,0,0,0,175.22,68a4.52,4.52,0,0,0-.76-2.73A5.4,5.4,0,0,0,172,63.54Z"/><path class="cls-1" d="M193.12,57.88a8.75,8.75,0,0,0-6.35-2.59,8.8,8.8,0,0,0-3.39.65,8.94,8.94,0,0,0-2.86,1.92,9.24,9.24,0,0,0-2.06,3,9,9,0,0,0-.71,3.53A9.18,9.18,0,0,0,180.34,71a8.56,8.56,0,0,0,6.41,2.68,8.83,8.83,0,0,0,6.75-3,8.8,8.8,0,0,0,1.75-2.86,9.9,9.9,0,0,0,.58-3.46,9.15,9.15,0,0,0-.68-3.54A8.94,8.94,0,0,0,193.12,57.88ZM192,69.81a6.72,6.72,0,0,1-5.1,2.21,6.92,6.92,0,0,1-5.19-2.19,7.52,7.52,0,0,1-2.1-5.42,7.38,7.38,0,0,1,.72-3.16,7.6,7.6,0,0,1,2-2.61,6.93,6.93,0,0,1,2.1-1.23,6.78,6.78,0,0,1,2.37-.42,7,7,0,0,1,5.16,2.18,7.17,7.17,0,0,1,2.14,5.2A7.66,7.66,0,0,1,192,69.81Z"/><polygon class="cls-1" points="200.95 55.64 199.2 55.64 199.2 73.35 207.18 73.35 207.18 71.64 200.95 71.64 200.95 55.64"/><path class="cls-1" d="M219.29,66.48a7.45,7.45,0,0,1-1,4.24,3.38,3.38,0,0,1-3,1.37,3.85,3.85,0,0,1-2.07-.57,3.64,3.64,0,0,1-1.39-1.58,4.08,4.08,0,0,1-.35-1.14,13.5,13.5,0,0,1-.1-1.95V55.64h-1.74V66.91q0,3.51,1.4,5.17a5.42,5.42,0,0,0,4.38,1.65A5,5,0,0,0,219.64,72,8.06,8.06,0,0,0,221,66.91V55.64h-1.71Z"/><polygon class="cls-1" points="223.5 57.38 227.04 57.38 227.04 73.35 228.78 73.35 228.78 57.38 232.31 57.38 232.31 55.64 223.5 55.64 223.5 57.38"/><rect class="cls-1" x="235.04" y="55.64" width="1.74" height="17.71"/><path class="cls-1" d="M255.5,57.88a8.75,8.75,0,0,0-6.35-2.59,8.8,8.8,0,0,0-3.39.65,8.94,8.94,0,0,0-2.86,1.92,9.24,9.24,0,0,0-2.06,3,9,9,0,0,0-.71,3.53A9.18,9.18,0,0,0,242.71,71a8.56,8.56,0,0,0,6.41,2.68,8.83,8.83,0,0,0,6.75-3,8.8,8.8,0,0,0,1.75-2.86,9.9,9.9,0,0,0,.58-3.46,9.15,9.15,0,0,0-.68-3.54A8.94,8.94,0,0,0,255.5,57.88Zm-1.16,11.93a6.72,6.72,0,0,1-5.1,2.21A6.92,6.92,0,0,1,244,69.84a7.52,7.52,0,0,1-2.1-5.42,7.38,7.38,0,0,1,.72-3.16,7.6,7.6,0,0,1,2-2.61,6.93,6.93,0,0,1,2.1-1.23,6.78,6.78,0,0,1,2.37-.42,7,7,0,0,1,5.16,2.18,7.17,7.17,0,0,1,2.14,5.2A7.66,7.66,0,0,1,254.34,69.81Z"/><polygon class="cls-1" points="273.34 71.24 263.62 55.64 261.53 55.64 261.53 73.35 263.24 73.35 263.05 57.73 272.76 73.35 274.86 73.35 274.86 55.64 273.13 55.64 273.34 71.24"/><path class="cls-1" d="M285,63.54q-.47-.18-1.39-.47a8.27,8.27,0,0,1-2.14-.92,2.63,2.63,0,0,1-.8-.92,2.67,2.67,0,0,1-.25-1.2,3,3,0,0,1,.83-2.18,2.86,2.86,0,0,1,2.15-.86,2.54,2.54,0,0,1,2,.78,3.68,3.68,0,0,1,.86,2.23h1.64a5.31,5.31,0,0,0-1.3-3.45,4.16,4.16,0,0,0-3.16-1.23A4.56,4.56,0,0,0,280,56.66a4.75,4.75,0,0,0-1.32,3.47,4,4,0,0,0,.86,2.68,6.19,6.19,0,0,0,2.8,1.7l.44.15q3.72,1.23,3.72,3.64a3.68,3.68,0,0,1-.91,2.62,3.2,3.2,0,0,1-2.45,1,3,3,0,0,1-2.32-1,3.93,3.93,0,0,1-.93-2.62H278.2a5.76,5.76,0,0,0,1.39,3.92,4.52,4.52,0,0,0,3.52,1.49,4.75,4.75,0,0,0,3.73-1.57A6,6,0,0,0,288.23,68a4.52,4.52,0,0,0-.76-2.73A5.4,5.4,0,0,0,285,63.54Z"/><polygon class="cls-2" points="50.01 72.84 73.34 49.51 68.9 45.08 49.69 64.29 27.75 42.35 23.64 46.47 50.01 72.84"/><polygon class="cls-2" points="35.2 34.91 31.09 39.02 49.69 57.62 72.72 34.59 68.61 30.48 49.69 49.4 35.2 34.91"/><polygon class="cls-2" points="83.74 45.61 49.69 79.66 20.07 50.04 18.63 48.6 21.55 45.67 26.31 40.91 29.33 37.9 33.76 33.47 36.99 30.24 38.43 31.68 49.69 42.94 65.38 27.25 62.07 23.94 49.69 36.32 41.74 28.37 40.3 26.93 37.31 23.94 34.32 26.93 30.77 30.48 26.34 34.91 23.32 37.92 18.57 42.68 11.37 49.88 49.69 88.2 88.01 49.88 83.74 45.61"/><polygon class="cls-3" points="54.12 15.99 52.68 14.54 49.69 11.56 39.55 21.7 42.54 24.69 43.98 26.13 49.05 31.2 59.19 21.06 54.12 15.99"/><rect class="cls-3" x="71.57" y="39.78" width="7.85" height="6.27" transform="translate(-8.23 65.96) rotate(-45)"/><rect class="cls-4" x="253.71" y="49.15" width="35.94" height="1.45"/><rect class="cls-5" x="90.56" y="49.15" width="154.67" height="1.45"/></svg>